<svg xmlns="http://www.w3.org/2000/svg" width="32" height="32" viewBox="0 0 32 32" fill="none">
    <path d="M11.1538 4.00305C7.21923 4.00305 4.00174 7.18902 4.00175 11.1044C4.03928 12.0779 4.20137 13.1654 4.40017 14.0066H2.99593C1.63238 13.9764 1.63238 16.0371 2.99593 16.0065H5.02515C6.77753 20.5603 10.699 25.1133 15.5091 27.8674C15.8155 28.0416 16.1909 28.0416 16.4974 27.8674C19.6774 26.0467 22.5123 23.3152 24.581 20.3247C25.5508 18.9228 26.3471 17.464 26.9305 16.0065H29.0027C30.3663 16.0367 30.3663 13.976 29.0027 14.0066H27.5848C27.8492 12.9982 27.9856 12.0581 27.9988 11.1044C27.9989 7.18902 24.7794 4.00305 20.8448 4.00305C19.0133 4.00305 17.2914 4.69932 15.9935 5.88778C14.6966 4.70227 12.9836 4.00305 11.1538 4.00305ZM11.1538 6.00496C12.7475 6.00496 14.2158 6.72449 15.1771 7.91495C15.55 8.37698 16.241 8.41428 16.6614 7.99511C17.9013 6.90612 19.4472 6.02768 20.8448 6.00496C23.6608 6.00496 25.9181 8.20634 25.9911 10.9676C25.9283 12.0378 25.7639 13.141 25.5087 14.0066H21.0011C20.736 14.0046 20.4811 14.1079 20.2921 14.2938L19.2726 15.3134L17.8938 12.5596C17.5245 11.825 16.476 11.825 16.1067 12.5596L15.1029 14.5673L13.9291 11.6299C13.7761 11.247 13.4039 10.9974 12.9916 11.001C12.6583 11.0043 12.3485 11.1733 12.1655 11.4521L10.4663 14.0067H6.51532C6.22986 12.9422 6.03769 11.8973 6.01144 10.9228C6.10782 8.18279 8.35319 6.00508 11.1538 6.00508V6.00496ZM12.7768 14.1394L14.0697 17.3717C14.3877 18.1732 15.5031 18.2233 15.8919 17.4537L16.9993 15.239L18.1067 17.4537C18.4128 18.0634 19.2261 18.1944 19.7082 17.7115L21.4132 16.0065H24.749C24.2676 17.0662 23.6576 18.1427 22.9346 19.1879C21.1563 21.7586 18.6531 24.0239 16.0032 25.6682C12.1791 23.2952 8.97997 19.5725 7.30045 16.0065H10.9976C11.3344 16.0064 11.6486 15.8367 11.8335 15.5553L12.7768 14.1394Z" fill="#00A3A3"/>
</svg>
