<svg xmlns="http://www.w3.org/2000/svg" width="32" height="32" viewBox="0 0 32 32" fill="none">
    <path d="M25.8435 26.722C25.5985 26.722 25.355 26.641 25.1555 26.4835L17.335 20.3425C17.0665 20.1315 16.9095 19.809 16.9095 19.4675V9.26855C16.9095 8.92655 17.066 8.60405 17.3345 8.39355L25.155 2.25105C25.4905 1.98855 25.946 1.93905 26.33 2.12555C26.713 2.31155 26.956 2.70005 26.956 3.12655V25.609C26.956 26.035 26.713 26.424 26.33 26.61C26.175 26.685 26.0085 26.722 25.8435 26.722ZM19.1355 18.926L24.73 23.3195V5.41605L19.1355 9.81005V18.926Z" fill="#A30089"/>
    <path d="M18.0225 20.5535H6.186C2.775 20.5535 0 17.779 0 14.3675C0 10.957 2.775 8.18201 6.186 8.18201H18.0225C18.637 8.18201 19.1355 8.68001 19.1355 9.29551V19.4405C19.1355 20.055 18.637 20.5535 18.0225 20.5535ZM6.186 10.408C4.0025 10.408 2.226 12.184 2.226 14.3675C2.226 16.551 4.0025 18.3275 6.186 18.3275H16.9095V10.408H6.186Z" fill="#A30089"/>
    <path d="M8.59203 29.987C7.86603 29.987 7.15503 29.7765 6.53253 29.37C5.68653 28.818 5.10603 27.969 4.89803 26.9815L3.29053 19.3385C3.16403 18.737 3.54903 18.1465 4.15053 18.02C4.75353 17.893 5.34253 18.279 5.46903 18.88L7.07703 26.523C7.16253 26.9295 7.40103 27.2785 7.75003 27.5065C8.09753 27.733 8.51253 27.8125 8.91903 27.726C9.75703 27.5485 10.296 26.721 10.1195 25.8835L8.81253 19.669C8.68603 19.0675 9.07153 18.4775 9.67303 18.3505C10.275 18.2245 10.8645 18.6095 10.991 19.211L12.298 25.425C12.7265 27.462 11.4175 29.4715 9.38003 29.904C9.11703 29.9595 8.85303 29.987 8.59203 29.987ZM27.566 18.802H25.8425C25.228 18.802 24.7295 18.304 24.7295 17.6885C24.7295 17.074 25.228 16.5755 25.8425 16.5755H27.566C28.1555 16.5755 28.7095 16.3465 29.125 15.9305C29.5435 15.5125 29.774 14.9575 29.774 14.367C29.774 13.149 28.7835 12.159 27.566 12.159H25.8425C25.228 12.159 24.7295 11.6605 24.7295 11.0455C24.7295 10.4305 25.228 9.9325 25.8425 9.9325H27.566C30.011 9.9325 32 11.9215 32 14.3665C32 15.551 31.538 16.6655 30.699 17.5045C29.863 18.342 28.75 18.802 27.566 18.802Z" fill="#A30089"/>
</svg>
